<?xml version="1.0" standalone="no"?>
<!DOCTYPE svg PUBLIC "-//W3C//DTD SVG 20010904//EN"
 "http://www.w3.org/TR/2001/REC-SVG-20010904/DTD/svg10.dtd">
<svg version="1.0" xmlns="http://www.w3.org/2000/svg"
 width="4000.000000pt" height="4000.000000pt" viewBox="0 0 4000.000000 4000.000000"
 preserveAspectRatio="xMidYMid meet">

<g transform="translate(0.000000,4000.000000) scale(0.100000,-0.100000)"
fill="#000000" stroke="none">
<path d="M0 20000 l0 -20000 20000 0 20000 0 0 20000 0 20000 -20000 0 -20000
0 0 -20000z m16965 10775 c482 -73 909 -285 1259 -625 137 -133 216 -228 319
-382 207 -310 336 -673 367 -1034 20 -231 570 -9460 570 -9560 0 -198 -34
-438 -95 -670 -223 -854 -862 -1577 -1685 -1907 -336 -135 -626 -194 -995
-204 -236 -6 -375 4 -595 43 -270 49 -482 119 -745 249 -268 132 -499 293
-708 494 -525 506 -823 1142 -877 1871 -9 131 -7 211 30 805 164 2699 512
8498 520 8662 12 245 31 384 74 557 55 216 155 452 269 635 238 383 608 707
1017 891 206 93 483 166 715 190 127 12 430 5 560 -15z m8810 -4 c588 -104
1080 -424 1406 -915 166 -250 271 -518 326 -831 27 -157 25 -521 -5 -682 -84
-462 -285 -840 -614 -1158 -181 -176 -331 -280 -563 -391 -572 -274 -1245
-270 -1822 11 -660 322 -1100 960 -1172 1699 -37 372 36 769 203 1111 319 652
934 1085 1666 1175 126 15 439 5 575 -19z m-2395 -5066 c592 -96 1020 -594
1020 -1190 0 -248 -66 -467 -203 -673 -166 -250 -405 -418 -706 -500 -88 -24
-112 -26 -296 -26 -185 0 -207 2 -298 27 -217 58 -393 161 -553 321 -55 55
-119 129 -142 163 -433 644 -175 1509 538 1803 197 81 430 108 640 75z m182
-9806 c125 -27 240 -115 296 -226 71 -139 66 -40 69 -1445 2 -698 7 -1268 11
-1268 4 0 239 239 522 531 617 637 858 873 931 916 254 150 586 24 649 -246
29 -123 -15 -242 -150 -403 -89 -108 -131 -149 -497 -477 l-272 -244 33 -51
c18 -28 246 -379 506 -781 260 -401 504 -779 542 -840 131 -208 155 -279 138
-408 -34 -267 -220 -422 -487 -405 -114 8 -182 37 -253 109 -99 102 -206 264
-661 999 -243 393 -447 721 -453 728 -10 10 -69 -40 -284 -240 l-272 -253 0
-435 c0 -486 -4 -523 -65 -646 -45 -92 -131 -173 -233 -222 -60 -29 -87 -35
-160 -40 -202 -11 -359 76 -439 243 -68 143 -64 -19 -60 2443 2 2094 4 2231
20 2292 53 195 165 323 317 364 67 18 180 20 252 5z m-12863 -101 c143 -45
248 -133 292 -245 32 -83 32 -233 0 -316 -29 -74 -114 -167 -186 -202 -122
-60 -101 -59 -832 -62 l-673 -4 -2 -1977 -3 -1977 -22 -78 c-31 -109 -75 -187
-142 -250 -96 -92 -213 -137 -356 -137 -246 0 -428 140 -502 385 -17 57 -18
170 -21 2048 l-2 1987 -639 0 c-705 0 -740 2 -858 60 -159 78 -242 247 -213
434 29 186 154 302 371 345 24 5 863 8 1889 7 1692 -1 1849 -3 1899 -18z
m1273 -1357 c81 -31 150 -97 193 -184 43 -89 61 -158 76 -293 l12 -104 66 103
c142 216 290 367 426 432 118 56 189 69 370 70 232 0 377 -35 589 -143 132
-67 221 -148 264 -238 24 -53 27 -70 27 -164 0 -95 -3 -110 -28 -163 -38 -77
-111 -148 -194 -189 -101 -49 -179 -47 -383 14 -218 65 -258 72 -405 72 -108
0 -141 -4 -195 -23 -226 -78 -366 -289 -439 -661 -53 -273 -62 -431 -70 -1255
-7 -650 -10 -747 -25 -800 -65 -233 -235 -365 -469 -365 -221 0 -384 132 -454
365 -17 56 -18 152 -21 1515 -3 1467 -1 1563 33 1693 47 179 153 294 310 334
76 19 246 10 317 -16z m4424 19 c416 -33 712 -118 920 -265 86 -62 201 -189
252 -278 81 -142 142 -350 174 -597 9 -69 13 -307 13 -865 1 -884 -3 -835 100
-1185 87 -294 94 -368 45 -468 -77 -153 -274 -263 -447 -249 -160 12 -328 158
-523 452 -29 44 -56 84 -61 89 -4 4 -34 -12 -66 -36 -239 -183 -539 -346 -778
-422 -270 -86 -670 -111 -927 -56 -483 102 -823 420 -912 852 -22 108 -21 308
3 423 60 293 264 546 557 694 167 84 242 105 714 200 427 87 578 119 795 170
148 35 546 139 552 145 1 1 -3 49 -8 106 -29 286 -126 482 -277 559 -222 113
-759 106 -1009 -14 -86 -42 -201 -131 -264 -206 -25 -30 -89 -118 -143 -196
-117 -170 -150 -205 -205 -222 -170 -50 -361 -4 -469 114 -68 74 -87 132 -86
255 1 79 7 111 33 189 151 448 658 748 1371 810 138 12 497 13 646 1z m4395 0
c256 -26 491 -94 724 -210 173 -86 300 -176 425 -300 205 -205 324 -453 305
-636 -20 -192 -193 -349 -399 -361 -192 -12 -267 40 -481 338 -82 113 -233
265 -328 326 -279 182 -725 175 -1008 -17 -319 -218 -484 -634 -466 -1180 21
-604 282 -1006 734 -1127 87 -23 116 -26 263 -26 145 0 177 3 261 26 255 67
450 230 625 522 67 112 113 172 178 233 86 81 129 97 261 97 99 0 116 -3 168
-27 82 -38 159 -120 205 -215 34 -73 37 -84 36 -168 0 -149 -51 -295 -156
-457 -77 -117 -250 -290 -375 -376 -232 -158 -530 -268 -858 -318 -171 -26
-599 -26 -770 0 -487 74 -857 270 -1127 596 -284 342 -418 756 -418 1295 0
835 351 1473 985 1787 205 102 462 173 710 197 131 12 387 13 506 1z m8050 0
c387 -39 714 -171 995 -401 344 -281 567 -749 567 -1194 1 -325 -90 -461 -356
-535 -171 -48 -229 -50 -1342 -50 l-1043 0 5 -77 c44 -689 502 -1100 1138
-1022 288 35 496 155 880 505 79 71 159 136 183 146 93 41 249 33 337 -17 273
-157 139 -582 -282 -899 -180 -136 -489 -267 -753 -320 -328 -66 -754 -60
-1095 15 -709 156 -1207 666 -1350 1383 -37 187 -48 304 -48 516 0 214 12 333
50 515 123 591 449 1022 949 1256 178 84 446 156 659 177 128 13 385 14 506 2z
m3071 -19 c81 -31 150 -97 193 -184 43 -89 61 -158 76 -293 l12 -104 66 103
c142 216 290 367 426 432 118 56 189 69 370 70 232 0 377 -35 589 -143 132
-67 221 -148 264 -238 24 -53 27 -70 27 -164 0 -95 -3 -110 -28 -163 -38 -77
-111 -148 -194 -189 -101 -49 -179 -47 -383 14 -218 65 -258 72 -405 72 -108
0 -141 -4 -195 -23 -226 -78 -366 -289 -439 -661 -53 -273 -62 -431 -70 -1255
-7 -650 -10 -747 -25 -800 -65 -233 -235 -365 -469 -365 -221 0 -384 132 -454
365 -17 56 -18 152 -21 1515 -3 1467 -1 1563 33 1693 47 179 153 294 310 334
76 19 246 10 317 -16z m-14165 -4975 c16 -14 88 -131 163 -266 113 -202 136
-238 146 -225 7 9 68 116 136 237 67 122 136 234 151 249 58 59 160 22 174
-63 7 -49 -13 -91 -201 -410 l-156 -266 0 -232 c0 -194 -3 -238 -16 -266 -31
-66 -118 -85 -172 -39 -43 36 -52 92 -52 336 l0 210 -144 247 c-166 286 -192
335 -201 384 -19 98 96 168 172 104z m10025 -15 c31 -27 33 -34 33 -91 0 -57
-2 -64 -33 -91 -68 -60 -167 -23 -179 68 -16 117 97 188 179 114z m-16363 6
c14 -6 33 -26 42 -42 9 -17 58 -203 109 -415 50 -212 93 -386 95 -388 1 -2 24
86 50 195 111 467 144 595 160 619 24 38 59 46 178 42 108 -3 109 -3 137 -35
18 -20 31 -48 35 -75 3 -24 5 -284 3 -578 -3 -488 -5 -538 -21 -567 -33 -62
-105 -73 -159 -24 l-33 29 -5 464 c-3 255 -8 456 -12 448 -4 -8 -50 -206 -103
-438 -52 -233 -102 -440 -112 -459 -45 -96 -179 -98 -231 -4 -12 21 -61 217
-117 466 -53 237 -99 437 -103 445 -4 8 -9 -196 -12 -453 l-5 -469 -33 -29
c-56 -50 -135 -34 -163 34 -20 46 -20 1151 -1 1185 27 47 69 62 177 62 59 0
110 -5 124 -13z m10883 -6 c93 -30 182 -120 210 -214 8 -24 13 -94 13 -162 0
-108 -3 -125 -26 -175 -37 -78 -81 -125 -152 -160 -84 -41 -144 -50 -318 -50
l-149 0 0 -216 c0 -239 -7 -271 -61 -299 -60 -32 -124 -13 -154 45 -23 45 -22
1147 1 1191 28 56 51 59 339 56 163 -3 274 -8 297 -16z m4940 -20 l33 -29 5
-144 5 -143 50 -3 c77 -4 93 -10 110 -42 21 -40 19 -64 -8 -96 -19 -22 -34
-28 -88 -33 l-64 -6 -3 -200 c-5 -350 5 -394 94 -381 24 3 55 8 69 12 19 5 32
-1 56 -25 27 -28 31 -37 26 -68 -12 -72 -66 -104 -187 -111 -99 -5 -156 8
-201 45 -61 52 -63 66 -69 413 l-5 315 -44 6 c-64 8 -95 60 -71 118 12 29 43
47 90 53 l25 3 5 143 5 144 33 29 c22 20 43 29 67 29 24 0 45 -9 67 -29z
m-14223 -315 c147 -54 182 -155 180 -516 0 -134 4 -200 14 -240 28 -102 26
-133 -12 -171 -54 -54 -116 -35 -171 52 -34 52 -34 52 -92 7 -129 -101 -317
-117 -428 -37 -73 53 -117 163 -104 260 9 69 58 147 114 181 28 18 94 40 170
59 69 16 163 41 209 55 l84 25 -7 46 c-13 100 -67 139 -177 130 -87 -7 -122
-29 -174 -108 -45 -68 -46 -69 -89 -69 -106 0 -127 126 -39 230 42 49 101 84
173 105 73 20 285 15 349 -9z m1940 0 c147 -54 182 -155 180 -516 0 -134 4
-200 14 -240 28 -102 26 -133 -12 -171 -54 -54 -116 -35 -171 52 -34 52 -34
52 -92 7 -129 -101 -317 -117 -428 -37 -73 53 -117 163 -104 260 9 69 58 147
114 181 28 18 94 40 170 59 69 16 163 41 209 55 l84 25 -7 46 c-13 100 -67
139 -177 130 -87 -7 -122 -29 -174 -108 -45 -68 -46 -69 -89 -69 -106 0 -127
126 -39 230 42 49 101 84 173 105 73 20 285 15 349 -9z m1894 -14 c79 -39 138
-102 180 -190 29 -62 32 -75 32 -168 0 -162 -5 -164 -353 -164 l-242 0 6 -42
c9 -69 54 -148 102 -182 37 -26 53 -31 105 -31 78 0 121 20 205 99 52 49 70
60 97 60 100 0 100 -121 1 -217 -74 -72 -171 -107 -296 -107 -143 0 -256 48
-334 143 -147 180 -140 544 14 711 86 94 177 128 322 123 85 -3 106 -8 161
-35z m9050 0 c79 -39 138 -102 180 -190 29 -62 32 -75 32 -168 0 -162 -5 -164
-353 -164 l-242 0 6 -42 c9 -69 54 -148 102 -182 37 -26 53 -31 105 -31 78 0
121 20 205 99 52 49 70 60 97 60 100 0 100 -121 1 -217 -74 -72 -171 -107
-296 -107 -143 0 -256 48 -334 143 -147 180 -140 544 14 711 86 94 177 128
322 123 85 -3 106 -8 161 -35z m2700 0 c79 -39 138 -102 180 -190 29 -62 32
-75 32 -168 0 -162 -5 -164 -353 -164 l-242 0 6 -42 c9 -69 54 -148 102 -182
37 -26 53 -31 105 -31 78 0 121 20 205 99 52 49 70 60 97 60 100 0 100 -121 1
-217 -74 -72 -171 -107 -296 -107 -143 0 -256 48 -334 143 -147 180 -140 544
14 711 86 94 177 128 322 123 85 -3 106 -8 161 -35z m-15044 12 c27 -19 51
-71 51 -110 0 -26 1 -26 39 17 21 25 63 58 92 74 49 27 63 30 144 30 107 0
150 -18 212 -89 73 -82 78 -116 78 -476 0 -282 -2 -318 -18 -347 -21 -39 -45
-53 -90 -53 -40 0 -80 28 -95 67 -7 17 -12 135 -14 308 -3 264 -4 283 -25 328
-59 127 -238 89 -293 -63 -8 -23 -15 -127 -19 -308 l-6 -274 -33 -29 c-55 -49
-127 -36 -163 31 -11 19 -15 104 -17 385 -4 422 -1 457 38 497 33 33 82 37
119 12z m2215 -14 c27 -14 68 -46 91 -72 l42 -47 7 46 c8 63 46 103 97 103 52
0 67 -8 87 -44 15 -27 17 -76 20 -436 5 -550 -9 -648 -101 -742 -73 -75 -173
-108 -328 -108 -98 0 -169 15 -239 50 -133 68 -190 191 -121 261 22 22 39 29
67 29 32 0 43 -7 73 -42 75 -86 98 -106 136 -117 122 -34 244 13 274 106 6 21
15 83 18 138 l5 100 -53 -51 c-82 -79 -108 -89 -219 -89 -86 0 -100 3 -148 29
-29 17 -69 47 -89 69 -132 147 -161 465 -60 663 34 67 125 149 185 169 71 23
194 15 256 -15z m3351 -4 c112 -51 181 -128 227 -252 18 -50 22 -80 22 -199 0
-119 -4 -149 -22 -199 -46 -125 -110 -197 -222 -250 -61 -29 -72 -31 -180 -31
-99 0 -122 3 -165 23 -118 54 -195 138 -237 259 -19 58 -23 88 -23 198 0 110
4 140 23 197 41 117 104 193 202 243 73 37 114 45 221 41 78 -2 106 -8 154
-30z m587 5 l33 -29 6 -294 c6 -319 12 -355 66 -398 79 -62 202 -15 249 95 15
33 18 85 23 318 l6 279 33 29 c24 21 42 29 71 29 55 0 87 -29 100 -91 13 -61
15 -737 2 -792 -14 -58 -46 -87 -96 -87 -30 0 -47 6 -63 23 -25 26 -42 69 -42
104 0 25 -4 22 -62 -34 -79 -75 -138 -98 -242 -91 -85 6 -140 31 -188 88 -64
74 -70 111 -76 428 -5 338 -1 385 38 424 40 40 97 39 142 -1z m976 6 c12 -13
28 -43 35 -66 l12 -43 32 46 c50 70 85 88 163 83 71 -4 119 -24 156 -64 34
-37 34 -114 -1 -148 -28 -29 -56 -31 -132 -9 -70 20 -114 12 -147 -27 -49 -58
-58 -113 -65 -389 -6 -226 -9 -258 -25 -283 -10 -15 -27 -32 -37 -37 -27 -15
-82 -12 -107 6 -51 35 -52 44 -52 463 0 403 2 425 42 469 30 31 96 31 126 -1z
m2190 0 c12 -13 28 -43 35 -66 l12 -43 32 46 c50 70 85 88 163 83 71 -4 119
-24 156 -64 34 -37 34 -114 -1 -148 -28 -29 -56 -31 -132 -9 -70 20 -114 12
-147 -27 -49 -58 -58 -113 -65 -389 -6 -226 -9 -258 -25 -283 -10 -15 -27 -32
-37 -37 -27 -15 -82 -12 -107 6 -51 35 -52 44 -52 463 0 403 2 425 42 469 30
31 96 31 126 -1z m1037 -11 c112 -51 181 -128 227 -252 18 -50 22 -80 22 -199
0 -119 -4 -149 -22 -199 -46 -125 -110 -197 -222 -250 -61 -29 -72 -31 -180
-31 -99 0 -122 3 -165 23 -118 54 -195 138 -237 259 -19 58 -23 88 -23 198 0
110 4 140 23 197 41 117 104 193 202 243 73 37 114 45 221 41 78 -2 106 -8
154 -30z m566 24 c27 -15 49 -63 49 -107 l0 -37 58 56 c72 71 111 90 193 96
179 13 318 -103 370 -308 18 -72 21 -103 16 -205 -8 -170 -46 -275 -133 -362
-68 -68 -121 -88 -229 -88 -107 0 -134 11 -217 93 l-58 56 0 -201 c0 -230 -3
-253 -38 -288 -27 -27 -86 -34 -122 -15 -38 20 -40 54 -40 666 l0 592 26 31
c21 25 33 31 66 31 21 0 48 -5 59 -10z m1987 -13 c12 -13 28 -43 35 -66 l12
-43 32 46 c50 70 85 88 163 83 71 -4 119 -24 156 -64 34 -37 34 -114 -1 -148
-28 -29 -56 -31 -132 -9 -70 20 -114 12 -147 -27 -49 -58 -58 -113 -65 -389
-6 -226 -9 -258 -25 -283 -10 -15 -27 -32 -37 -37 -27 -15 -82 -12 -107 6 -51
35 -52 44 -52 463 0 403 2 425 42 469 30 31 96 31 126 -1z m1301 7 c49 -34 51
-56 51 -461 0 -228 -4 -393 -10 -415 -20 -69 -102 -101 -159 -62 -49 35 -51
55 -51 469 0 414 2 434 51 469 13 9 39 16 59 16 20 0 46 -7 59 -16z m1653 5
c74 -16 138 -50 181 -98 86 -95 64 -211 -41 -211 -39 0 -49 4 -76 37 -72 86
-104 112 -150 118 -89 14 -166 -28 -166 -89 0 -58 35 -80 200 -126 252 -71
343 -157 326 -314 -13 -123 -83 -212 -199 -253 -80 -28 -282 -25 -357 5 -108
43 -180 129 -182 217 -1 68 25 99 85 103 45 3 47 1 74 -39 70 -107 134 -149
223 -149 45 0 115 32 129 58 16 29 14 84 -4 109 -19 27 -79 54 -193 86 -159
46 -262 113 -292 192 -17 44 -15 144 4 190 32 76 116 143 203 164 55 13 174
13 235 0z"/>
<path d="M16715 12474 c-101 -36 -339 -95 -665 -164 -517 -111 -570 -127 -705
-221 -140 -97 -195 -189 -203 -343 -8 -167 35 -284 147 -396 146 -145 346
-201 608 -171 364 43 666 227 794 486 74 150 104 317 115 643 6 162 5 192 -7
191 -8 0 -45 -12 -84 -25z"/>
<path d="M28403 13795 c-184 -33 -336 -114 -453 -242 -153 -166 -240 -383
-284 -705 l-5 -38 905 0 904 0 0 28 c0 49 -30 225 -51 302 -84 306 -256 512
-510 610 -142 55 -350 73 -506 45z"/>
<path d="M21870 9080 l0 -203 134 5 c118 4 140 8 182 29 62 32 94 89 94 168 0
83 -31 139 -95 171 -44 22 -66 25 -182 28 l-133 4 0 -202z"/>
<path d="M12817 8595 c-70 -19 -141 -44 -157 -55 -93 -66 -32 -220 88 -220 75
0 162 50 193 113 27 51 40 197 18 196 -8 0 -72 -16 -142 -34z"/>
<path d="M14757 8595 c-70 -19 -141 -44 -157 -55 -93 -66 -32 -220 88 -220 75
0 162 50 193 113 27 51 40 197 18 196 -8 0 -72 -16 -142 -34z"/>
<path d="M16582 8949 c-59 -29 -90 -83 -116 -201 l-6 -28 195 0 195 0 0 23 c0
49 -32 129 -67 167 -55 61 -127 75 -201 39z"/>
<path d="M25632 8949 c-59 -29 -90 -83 -116 -201 l-6 -28 195 0 195 0 0 23 c0
49 -32 129 -67 167 -55 61 -127 75 -201 39z"/>
<path d="M28332 8949 c-59 -29 -90 -83 -116 -201 l-6 -28 195 0 195 0 0 23 c0
49 -32 129 -67 167 -55 61 -127 75 -201 39z"/>
<path d="M15615 8931 c-90 -41 -129 -121 -129 -266 -1 -117 14 -178 57 -230
34 -42 97 -75 142 -75 46 0 108 33 143 76 50 60 65 120 60 232 -4 103 -27 173
-71 221 -28 30 -94 61 -132 61 -16 0 -48 -9 -70 -19z"/>
<path d="M18865 8931 c-50 -23 -78 -53 -107 -116 -20 -43 -23 -66 -23 -170 0
-104 3 -127 23 -170 29 -63 57 -93 107 -116 51 -24 99 -24 150 0 50 23 78 53
107 116 20 43 23 66 23 170 0 104 -3 127 -23 170 -13 27 -33 61 -45 74 -30 32
-94 61 -137 61 -19 0 -53 -9 -75 -19z"/>
<path d="M23655 8931 c-50 -23 -78 -53 -107 -116 -20 -43 -23 -66 -23 -170 0
-104 3 -127 23 -170 29 -63 57 -93 107 -116 51 -24 99 -24 150 0 50 23 78 53
107 116 20 43 23 66 23 170 0 104 -3 127 -23 170 -13 27 -33 61 -45 74 -30 32
-94 61 -137 61 -19 0 -53 -9 -75 -19z"/>
<path d="M24674 8931 c-76 -35 -117 -97 -135 -210 -20 -123 11 -250 78 -313
100 -95 233 -61 294 74 21 46 24 68 24 168 0 99 -3 122 -23 165 -55 118 -141
160 -238 116z"/>
</g>
</svg>
